<svg xmlns="http://www.w3.org/2000/svg" width="1200" height="600" viewBox="0 0 1200 600" fill="none">
  <!-- A very light world outline (simplified continents). -->
  <g stroke="#22d3ee" stroke-width="1.2" stroke-linecap="round" stroke-linejoin="round" opacity="1">
    <!-- North America -->
    <path d="M120 180
      C160 120, 250 110, 295 145
      C340 182, 335 235, 300 260
      C270 282, 240 290, 230 320
      C220 350, 245 370, 285 365
      C330 360, 375 330, 410 290
      C440 255, 480 235, 470 200
      C460 165, 410 140, 360 130
      C310 120, 260 120, 220 130
      C180 140, 140 160, 120 180 Z" />

    <!-- South America -->
    <path d="M420 345
      C430 320, 465 310, 485 320
      C505 330, 520 355, 512 380
      C505 405, 490 420, 485 448
      C480 478, 500 500, 525 495
      C555 488, 560 455, 545 430
      C530 405, 520 388, 530 365
      C540 340, 520 320, 505 315
      C480 308, 445 315, 420 345 Z" />

    <!-- Europe -->
    <path d="M610 170
      C630 155, 655 150, 675 160
      C695 170, 705 190, 690 205
      C675 220, 650 225, 630 215
      C610 205, 595 185, 610 170 Z" />

    <!-- Africa -->
    <path d="M670 225
      C685 205, 720 195, 740 210
      C760 225, 770 250, 760 275
      C750 300, 725 305, 725 330
      C725 355, 745 370, 740 395
      C735 420, 700 430, 685 410
      C670 390, 660 355, 670 330
      C680 305, 675 285, 670 265
      C665 245, 655 245, 670 225 Z" />

    <!-- Asia -->
    <path d="M720 140
      C770 120, 830 125, 875 150
      C920 175, 960 220, 940 255
      C920 290, 880 305, 885 335
      C890 365, 925 385, 920 420
      C915 460, 860 470, 820 450
      C780 430, 765 395, 755 360
      C745 325, 720 300, 710 265
      C700 230, 680 215, 700 190
      C720 165, 690 155, 720 140 Z" />

    <!-- Australia -->
    <path d="M910 420
      C935 395, 975 395, 1005 420
      C1035 445, 1030 485, 1000 505
      C970 525, 935 515, 915 490
      C895 465, 885 445, 910 420 Z" />

    <!-- Greenland -->
    <path d="M250 110
      C270 90, 310 90, 330 110
      C350 130, 345 160, 320 170
      C295 180, 260 165, 250 145
      C240 125, 230 130, 250 110 Z" />
  </g>
</svg>

